<?xml version="1.0" encoding="utf-8"?>
<!-- Generator: Adobe Illustrator 19.2.1, SVG Export Plug-In . SVG Version: 6.00 Build 0)  -->
<!DOCTYPE svg PUBLIC "-//W3C//DTD SVG 1.1//EN" "http://www.w3.org/Graphics/SVG/1.1/DTD/svg11.dtd">
<svg version="1.1" id="Layer_1" xmlns="http://www.w3.org/2000/svg" xmlns:xlink="http://www.w3.org/1999/xlink" x="0px" y="0px"
	 width="245px" height="239.1px" viewBox="0 0 245 239.1" style="enable-background:new 0 0 245 239.1;" xml:space="preserve">
<style type="text/css">
	.st0{fill:#F05474;}
	.st1{fill:none;stroke:#221F1F;stroke-width:3.2914;stroke-linecap:round;stroke-miterlimit:10;}
	.st2{fill:#F37B94;}
	.st3{fill:#6BC7B9;stroke:#754C28;stroke-width:2;stroke-miterlimit:10;}
	.st4{fill:none;stroke:#754C28;stroke-width:1.3202;stroke-miterlimit:10;stroke-dasharray:6.6008;}
	.st5{fill:#FFFFFF;stroke:#754C28;stroke-width:3;stroke-miterlimit:10;}
	.st6{fill:#231F20;stroke:#754C28;stroke-width:3;stroke-miterlimit:10;}
	.st7{fill:#231F20;stroke:#754C28;stroke-width:2.7887;stroke-miterlimit:10;}
	.st8{fill:#231F20;stroke:#754C28;stroke-width:2.8719;stroke-miterlimit:10;}
	.st9{fill:#231F20;stroke:#754C28;stroke-width:3.0919;stroke-miterlimit:10;}
	.st10{fill:#754C28;stroke:#754C28;stroke-width:1.3224;stroke-miterlimit:10;}
	.st11{fill:none;stroke:#754C28;stroke-width:4;stroke-miterlimit:10;}
	.st12{fill:#FFFFFF;stroke:#754C28;stroke-miterlimit:10;}
</style>
<rect x="-9" y="-9.8" class="st0" width="263.1" height="258.2"/>
<line class="st1" x1="94.8" y1="139.7" x2="103.8" y2="154.4"/>
<path class="st2" d="M189.4,122.1L189.4,122.1l55.6,3.4l0-19.8l-55.8,6.6c-0.4-3.2-1.1-6.5-2-9.6L245,85l0-23l-61.6,31.4
	c-1.6-3.1-3.4-6.1-5.5-9L245,34.7l0-34.4L170.7,76c-2.7-2.6-5.6-5.1-8.7-7.4L211.6,0l-27,0l-32.5,62.5c-3.5-1.8-7.1-3.4-10.9-4.7
	L161.5,0l-20.9,0l-10.9,54.5c-3.9-0.8-7.9-1.3-12-1.6l-0.2,0l0.1,0l3.2-53l-19.4,0l3.9,53c-4,0.3-8,0.9-11.9,1.7L81.7,0L60.6,0
	l21.5,58.1c-3.7,1.4-7.2,3-10.6,4.9L37.1,0L9.2,0l52.8,69.2c-2.9,2.3-5.7,4.7-8.1,7.4L0,25.3l0,27.5l47.3,32
	c-1.9,2.8-3.5,5.8-4.9,8.8L0,74.6l0,18.6l39.3,9.7c-0.8,3.1-1.3,6.4-1.5,9.6l0,0.1L0,110.2l0,16.6l38.1-4.5c0.4,3.2,1,6.5,2,9.6
	L0,144.2l0,19.4l43.8-22.2c1.6,3.1,3.4,6.1,5.5,9l-49.3,36.4l0,29.4l56.5-57.4c2.7,2.6,5.6,5.1,8.6,7.4l-52.9,73.1l27.9,0L75,172.2
	c3.5,1.8,7.1,3.4,10.8,4.7L64,239.2l21.6,0l11.9-59c3.9,0.8,8,1.3,12.1,1.6l0.1,0l-3.7,57.4l20,0l-4.2-57.4c4-0.3,8-0.9,11.9-1.7
	l12.7,59.2l21.7,0L145,176.7c3.7-1.4,7.2-3,10.6-4.9l36.8,67.3l28.8,0l-56.1-73.6c2.9-2.3,5.7-4.7,8.2-7.4l71.7,68.4l0-32.4
	L179.8,150c1.9-2.8,3.6-5.8,4.9-8.8l60.2,27.1l0-22.2l-57.1-14.2C188.7,128.7,189.2,125.5,189.4,122.1L189.4,122.1z"/>
<ellipse class="st3" cx="118.7" cy="125.4" rx="87.8" ry="80.2"/>
<ellipse class="st4" cx="119.2" cy="125" rx="82.7" ry="75.5"/>
<path class="st5" d="M185.5,120V37.9l-38,45.6H91L50.8,37.9V120l0.1,0c0,34.4,30.1,62.2,67.3,62.2h0
	C155.4,182.3,185.6,154.4,185.5,120L185.5,120z"/>
<line class="st6" x1="104.6" y1="135.6" x2="41.6" y2="128"/>
<line class="st6" x1="104.6" y1="142.1" x2="38.7" y2="142.1"/>
<line class="st6" x1="104.6" y1="148.3" x2="51" y2="159.1"/>
<line class="st7" x1="136" y1="149.7" x2="190.4" y2="157.3"/>
<line class="st8" x1="136" y1="143.2" x2="196.4" y2="143.2"/>
<line class="st9" x1="136" y1="137" x2="192.9" y2="126.1"/>
<path class="st10" d="M143.6,113.2l6.4-2.8v-5.6c0-4.1-4.2-7.4-9.4-7.4h0c-5.2,0-9.4,3.3-9.4,7.4V119c0,4.1,4.2,7.4,9.4,7.4h0
	c5.2,0,9.4-3.3,9.4-7.4v-2.7L143.6,113.2z"/>
<path class="st11" d="M109.7,113.2c0,7.3-5.9,13.2-13.2,13.2h0c-7.3,0-13.2-5.9-13.2-13.2"/>
<polygon class="st0" points="128.6,135.2 121,149.1 112.8,135.6 "/>
<path class="st12" d="M83.3,100.7c-5.2-0.2-6.1-9.3-6.1-9.3s0.3,9.1-4.5,10l-0.5,0c0.1,0,0.2,0,0.3,0c-0.1,0-0.2,0-0.3,0l0.5,0
	c4.8,0.2,5.8,9.3,5.8,9.3S78.2,101.6,83.3,100.7L83.3,100.7z"/>
<g>
</g>
<g>
</g>
<g>
</g>
<g>
</g>
<g>
</g>
<g>
</g>
</svg>
