<?xml version="1.0" encoding="utf-8"?>
<!-- Generator: Adobe Illustrator 19.2.1, SVG Export Plug-In . SVG Version: 6.00 Build 0)  -->
<!DOCTYPE svg PUBLIC "-//W3C//DTD SVG 1.1//EN" "http://www.w3.org/Graphics/SVG/1.1/DTD/svg11.dtd">
<svg version="1.1" id="Layer_1" xmlns="http://www.w3.org/2000/svg" xmlns:xlink="http://www.w3.org/1999/xlink" x="0px" y="0px"
	 width="226.7px" height="237.4px" viewBox="0 0 226.7 237.4" enable-background="new 0 0 226.7 237.4" xml:space="preserve">
<rect y="-0.1" fill="#F05474" width="226.7" height="237.9"/>
<line fill="none" stroke="#221F1F" stroke-width="3.2914" stroke-linecap="round" stroke-miterlimit="10" x1="75.9" y1="139" x2="84.9" y2="153.8"/>
<path fill="#F37B94" d="M174.9,120.9L174.9,120.9L226,124l0.1-19.7l-51.4,6.8c-0.3-3.2-0.9-6.4-1.8-9.5l53.3-17.9l0.1-22.9
	l-56.9,31.4c-1.4-3.1-3.1-6.1-5-8.9l62.1-49.6l0.2-34.1l-68.8,75.5c-2.4-2.6-5.1-5.1-7.9-7.3l45.9-68.4L171-0.4l-30.2,62.2
	c-3.2-1.8-6.5-3.4-10-4.6l18.9-57.4l-19.2,0.1L120.2,54c-3.6-0.8-7.3-1.3-11-1.5l-0.1,0l0.1,0l3.2-52.6L94.5,0l3.3,52.6
	c-3.7,0.3-7.4,0.9-11,1.8L76.2,0.1L56.8,0.2l19.5,57.6c-3.4,1.4-6.6,3-9.7,4.9L35.2,0.3L9.6,0.5l48.3,68.4c-2.7,2.3-5.2,4.7-7.5,7.3
	L1,25.6L0.8,52.9l43.4,31.6c-1.8,2.8-3.3,5.8-4.5,8.8l-39-18.7L0.6,93l36.1,9.4c-0.7,3.1-1.2,6.3-1.4,9.5l0,0.1l-34.8-2.2l-0.1,16.5
	l35.1-4.6c0.3,3.2,0.9,6.4,1.8,9.5L0.4,143.6l-0.1,19.3l40.4-22.3c1.4,3.1,3.1,6.1,5,8.9L0.1,185.9L0,215l52.3-57.2
	c2.4,2.6,5.1,5.1,7.9,7.3l-49,72.8l25.7-0.1l32.4-66.6c3.2,1.8,6.5,3.4,10,4.7l-20.4,61.9l19.8-0.1l11.2-58.6
	c3.6,0.8,7.4,1.3,11.1,1.5l0.1,0l-3.6,57l18.4-0.1l-3.6-57c3.7-0.3,7.4-0.9,11-1.8l11.4,58.7l20-0.1l-21-61.9c3.4-1.4,6.6-3,9.8-4.9
	l33.6,66.7l26.5-0.1l-51.3-72.8c2.7-2.3,5.2-4.7,7.5-7.3l65.7,67.6l0.2-32.2l-59.7-43.6c1.8-2.8,3.3-5.8,4.6-8.8l55.3,26.6l0.1-22
	l-52.5-13.8C174.2,127.4,174.7,124.2,174.9,120.9L174.9,120.9z"/>
<g>
	<ellipse fill="#6BC7B9" stroke="#754C28" stroke-width="2" stroke-miterlimit="10" cx="106.1" cy="118.8" rx="74" ry="67.5"/>
	
		<ellipse fill="none" stroke="#754C28" stroke-width="1.3202" stroke-miterlimit="10" stroke-dasharray="6.6008" cx="106.6" cy="118.5" rx="69.6" ry="63.5"/>
	<path fill="#FFFFFF" stroke="#754C28" stroke-width="3" stroke-miterlimit="10" d="M162.4,114.3V45.1l-32,38.4H82.8L49,45.1v69.2
		l0.1,0c0,28.9,25.4,52.4,56.7,52.4h0C137.1,166.7,162.4,143.2,162.4,114.3L162.4,114.3z"/>
	<line fill="#231F20" stroke="#754C28" stroke-width="3" stroke-miterlimit="10" x1="94.2" y1="127.4" x2="41.2" y2="121"/>
	<line fill="#231F20" stroke="#754C28" stroke-width="3" stroke-miterlimit="10" x1="94.2" y1="132.9" x2="38.8" y2="132.9"/>
	<line fill="#231F20" stroke="#754C28" stroke-width="3" stroke-miterlimit="10" x1="94.2" y1="138.1" x2="49.1" y2="147.2"/>
	
		<line fill="#231F20" stroke="#754C28" stroke-width="2.7887" stroke-miterlimit="10" x1="120.7" y1="139.2" x2="166.6" y2="145.6"/>
	
		<line fill="#231F20" stroke="#754C28" stroke-width="2.8719" stroke-miterlimit="10" x1="120.7" y1="133.8" x2="171.6" y2="133.8"/>
	
		<line fill="#231F20" stroke="#754C28" stroke-width="3.0919" stroke-miterlimit="10" x1="120.7" y1="128.6" x2="168.6" y2="119.4"/>
	<path fill="#754C28" stroke="#754C28" stroke-width="1.3224" stroke-miterlimit="10" d="M127.1,108.6l5.4-2.4v-4.7
		c0-3.4-3.6-6.2-7.9-6.2h0c-4.4,0-7.9,2.8-7.9,6.2v11.9c0,3.4,3.6,6.2,7.9,6.2h0c4.4,0,7.9-2.8,7.9-6.2v-2.3L127.1,108.6z"/>
	<path fill="none" stroke="#754C28" stroke-width="4" stroke-miterlimit="10" d="M98.5,108.5c0,6.1-5,11.1-11.1,11.1h0
		c-6.1,0-11.1-5-11.1-11.1"/>
	<polygon fill="#F05474" points="114.5,127 108.1,138.7 101.2,127.4 	"/>
	<path fill="#FFFFFF" stroke="#754C28" stroke-width="0.642" stroke-miterlimit="10" d="M76.4,98c-4.4-0.1-5.2-7.8-5.2-7.8
		s0.2,7.7-3.8,8.4l-0.4,0c0.1,0,0.2,0,0.3,0c-0.1,0-0.2,0-0.3,0l0.4,0c4.1,0.2,4.9,7.8,4.9,7.8S72.1,98.8,76.4,98L76.4,98z"/>
</g>
<g>
</g>
<g>
</g>
<g>
</g>
<g>
</g>
<g>
</g>
<g>
</g>
</svg>
